#tb 0: 125/2997
#media_type 0: video
#codec_id 0: rawvideo
#dimensions 0: 1280x718
#sar 0: 1/1
#tb 1: 1/48000
#media_type 1: audio
#codec_id 1: pcm_s32le
#sample_rate 1: 48000
#channel_layout_name 1: stereo
0,          0,          0,        1,  1378560, 0xbaf121ba
1,          0,          0,     1024,     8192, 0xc069003c
1,       1024,       1024,     1024,     8192, 0xc069003c
0,          1,          1,        1,  1378560, 0xbaf121ba
1,       2040,       2040,     1024,     8192, 0xc069003c
1,       3048,       3048,     1024,     8192, 0xc069003c
0,          2,          2,        1,  1378560, 0x6579d31a
1,       4072,       4072,     1024,     8192, 0xc069003c
1,       5096,       5096,     1024,     8192, 0xc069003c
0,          3,          3,        1,  1378560, 0xca1deba8
1,       6120,       6120,     1024,     8192, 0x9a77eb22
1,       7128,       7128,     1024,     8192, 0xfb7e03ae
0,          4,          4,        1,  1378560, 0xd4eed467
1,       8208,       8208,     1024,     8192, 0xd8331956
1,       9232,       9232,     1024,     8192, 0x52ece745
0,          5,          5,        1,  1378560, 0xd6e1d5b7
1,      10248,      10248,     1024,     8192, 0x68e30bf2
1,      11256,      11256,     1024,     8192, 0x29b7eaeb
0,          6,          6,        1,  1378560, 0x0b574d39
1,      12280,      12280,     1024,     8192, 0x8cb21c27
1,      13304,      13304,     1024,     8192, 0xa4e03da0
0,          7,          7,        1,  1378560, 0x1bdd4d61
1,      14328,      14328,     1024,     8192, 0x50a7c2e4
1,      15336,      15336,     1024,     8192, 0xdd3af70c
0,          8,          8,        1,  1378560, 0x3b28f549
1,      16360,      16360,     1024,     8192, 0xd5c5cdeb
1,      17384,      17384,     1024,     8192, 0x08801158
0,          9,          9,        1,  1378560, 0x45b2f57b
1,      18408,      18408,     1024,     8192, 0x212c473e
1,      19416,      19416,     1024,     8192, 0xe1b2db70
0,         10,         10,        1,  1378560, 0x8955570e
1,      20440,      20440,     1024,     8192, 0x8d090f6f
1,      21464,      21464,     1024,     8192, 0xb150b4c3
1,      22488,      22488,     1024,     8192, 0xd406adda
1,      23496,      23496,     1024,     8192, 0xe5524800
0,         12,         12,        1,  1378560, 0x9c598000
1,      25488,      25488,     1024,     8192, 0xc069003c
0,         13,         13,        1,  1378560, 0xbaf121ba
1,      26512,      26512,     1024,     8192, 0xc069003c
1,      27528,      27528,     1024,     8192, 0xc069003c
0,         14,         14,        1,  1378560, 0xbaf121ba
1,      28552,      28552,     1024,     8192, 0xc069003c
1,      29576,      29576,     1024,     8192, 0xc069003c
0,         15,         15,        1,  1378560, 0x6579d31a
1,      30600,      30600,     1024,     8192, 0x9a77eb22
1,      31608,      31608,     1024,     8192, 0xfb7e03ae
0,         16,         16,        1,  1378560, 0xca1deba8
1,      32688,      32688,     1024,     8192, 0xd8331956
1,      33712,      33712,     1024,     8192, 0x52ece745
0,         17,         17,        1,  1378560, 0xd4eed467
1,      34728,      34728,     1024,     8192, 0x68e30bf2
1,      35736,      35736,     1024,     8192, 0x29b7eaeb
0,         18,         18,        1,  1378560, 0xd6e1d5b7
1,      36760,      36760,     1024,     8192, 0x8cb21c27
1,      37784,      37784,     1024,     8192, 0xa4e03da0
0,         19,         19,        1,  1378560, 0x0b574d39
1,      38808,      38808,     1024,     8192, 0x50a7c2e4
1,      39816,      39816,     1024,     8192, 0xdd3af70c
0,         20,         20,        1,  1378560, 0x1bdd4d61
1,      40840,      40840,     1024,     8192, 0xd5c5cdeb
1,      41864,      41864,     1024,     8192, 0x08801158
0,         21,         21,        1,  1378560, 0x3b28f549
1,      42888,      42888,     1024,     8192, 0x212c473e
1,      43896,      43896,     1024,     8192, 0xe1b2db70
0,         22,         22,        1,  1378560, 0x45b2f57b
1,      44920,      44920,     1024,     8192, 0x8d090f6f
1,      45944,      45944,     1024,     8192, 0xb150b4c3
0,         23,         23,        1,  1378560, 0x8955570e
1,      46968,      46968,     1024,     8192, 0xd406adda
1,      47976,      47976,     1024,     8192, 0xe5524800
0,         24,         24,        1,  1378560, 0x9c598000
1,      49968,      49968,     1024,     8192, 0xc069003c
0,         25,         25,        1,  1378560, 0xbaf121ba
1,      50992,      50992,     1024,     8192, 0xc069003c
1,      52008,      52008,     1024,     8192, 0xc069003c
0,         26,         26,        1,  1378560, 0xbaf121ba
1,      53032,      53032,     1024,     8192, 0xc069003c
0,         27,         27,        1,  1378560, 0x6579d31a
1,      54056,      54056,     1024,     8192, 0xc069003c
1,      55080,      55080,     1024,     8192, 0x9a77eb22
0,         28,         28,        1,  1378560, 0xca1deba8
1,      56088,      56088,     1024,     8192, 0xfb7e03ae
1,      57168,      57168,     1024,     8192, 0xd8331956
0,         29,         29,        1,  1378560, 0xd4eed467
1,      58192,      58192,     1024,     8192, 0x52ece745
1,      59208,      59208,     1024,     8192, 0x68e30bf2
0,         30,         30,        1,  1378560, 0xd6e1d5b7
1,      60216,      60216,     1024,     8192, 0x29b7eaeb
1,      61240,      61240,     1024,     8192, 0x8cb21c27
0,         31,         31,        1,  1378560, 0x0b574d39
1,      62264,      62264,     1024,     8192, 0xa4e03da0
1,      63288,      63288,     1024,     8192, 0x50a7c2e4
0,         32,         32,        1,  1378560, 0x1bdd4d61
1,      64296,      64296,     1024,     8192, 0xdd3af70c
1,      65320,      65320,     1024,     8192, 0xd5c5cdeb
0,         33,         33,        1,  1378560, 0x3b28f549
1,      66344,      66344,     1024,     8192, 0x08801158
1,      67368,      67368,     1024,     8192, 0x212c473e
0,         34,         34,        1,  1378560, 0x45b2f57b
1,      68376,      68376,     1024,     8192, 0xe1b2db70
1,      69400,      69400,     1024,     8192, 0x8d090f6f
0,         35,         35,        1,  1378560, 0x8955570e
1,      70424,      70424,     1024,     8192, 0xb150b4c3
1,      71448,      71448,     1024,     8192, 0xd406adda
0,         36,         36,        1,  1378560, 0x9c598000
1,      72456,      72456,     1024,     8192, 0xe5524800
0,         37,         37,        1,  1378560, 0xbaf121ba
1,      74448,      74448,     1024,     8192, 0xc069003c
1,      75472,      75472,     1024,     8192, 0xc069003c
0,         38,         38,        1,  1378560, 0xbaf121ba
1,      76488,      76488,     1024,     8192, 0xc069003c
1,      77512,      77512,     1024,     8192, 0xc069003c
0,         39,         39,        1,  1378560, 0x6579d31a
1,      78536,      78536,     1024,     8192, 0xc069003c
1,      79560,      79560,     1024,     8192, 0x9a77eb22
0,         40,         40,        1,  1378560, 0xca1deba8
1,      80568,      80568,     1024,     8192, 0xfb7e03ae
1,      81648,      81648,     1024,     8192, 0xd8331956
0,         41,         41,        1,  1378560, 0xd4eed467
1,      82672,      82672,     1024,     8192, 0x52ece745
1,      83688,      83688,     1024,     8192, 0x68e30bf2
0,         42,         42,        1,  1378560, 0xd6e1d5b7
1,      84696,      84696,     1024,     8192, 0x29b7eaeb
1,      85720,      85720,     1024,     8192, 0x8cb21c27
0,         43,         43,        1,  1378560, 0x0b574d39
1,      86744,      86744,     1024,     8192, 0xa4e03da0
1,      87768,      87768,     1024,     8192, 0x50a7c2e4
0,         44,         44,        1,  1378560, 0x1bdd4d61
1,      88776,      88776,     1024,     8192, 0xdd3af70c
1,      89800,      89800,     1024,     8192, 0xd5c5cdeb
0,         45,         45,        1,  1378560, 0x3b28f549
1,      90824,      90824,     1024,     8192, 0x08801158
1,      91848,      91848,     1024,     8192, 0x212c473e
0,         46,         46,        1,  1378560, 0x45b2f57b
1,      92856,      92856,     1024,     8192, 0xe1b2db70
1,      93880,      93880,     1024,     8192, 0x8d090f6f
0,         47,         47,        1,  1378560, 0x8955570e
1,      94904,      94904,     1024,     8192, 0xb150b4c3
1,      95928,      95928,     1024,     8192, 0xd406adda
1,      96936,      96936,     1024,     8192, 0xe5524800
0,         49,         49,        1,  1378560, 0x9c598000
